<?xml version="1.0" encoding="utf-8"?>
<!-- Generator: Adobe Illustrator 17.0.0, SVG Export Plug-In . SVG Version: 6.00 Build 0)  -->
<!DOCTYPE svg PUBLIC "-//W3C//DTD SVG 1.1//EN" "http://www.w3.org/Graphics/SVG/1.1/DTD/svg11.dtd">
<svg version="1.1" id="Layer_1" xmlns="http://www.w3.org/2000/svg" xmlns:xlink="http://www.w3.org/1999/xlink" x="0px" y="0px"
	 width="1719.614px" height="414.498px" viewBox="0 0 1719.614 414.498" enable-background="new 0 0 1719.614 414.498"
	 xml:space="preserve">
<g>
	<g>
		<path fill="#FFFFFF" d="M153.756,50.269c0.878,0,1.481,0,2.084,0c21.049,0,42.099,0.01,63.148-0.025
			c1.208-0.002,1.818,0.268,2.259,1.508c10.301,28.95,17.635,58.635,22.056,89.035c2.14,14.716,3.611,29.503,4.217,44.368
			c0.007,0.178,0.062,0.353,0.364,0.568c0.082-0.695,0.207-1.388,0.239-2.086c1.201-25.867,4.563-51.454,9.917-76.786
			c3.903-18.466,8.896-36.63,14.867-54.533c0.512-1.536,1.133-2.095,2.805-2.09c20.864,0.063,41.728,0.041,62.592,0.041
			c0.664,0,1.328,0,2.265,0c-16.996,49.94-25.702,101.05-26.131,154.035c60.841-37.325,121.382-74.467,182.141-111.742
			c0.056,0.722,0.131,1.232,0.131,1.743c0.006,21.667-0.007,43.333,0.036,65c0.002,1.221-0.364,1.855-1.437,2.424
			c-27.877,14.783-55.735,29.601-83.596,44.414c-0.691,0.367-1.372,0.753-2.257,1.24c7.498,4.079,14.745,8.03,22.001,11.967
			c21.237,11.521,42.475,23.041,63.726,34.536c0.994,0.538,1.573,1.03,1.57,2.339c-0.053,21.79-0.037,43.58-0.04,65.37
			c0,0.416-0.038,0.831-0.074,1.562c-60.736-37.325-121.276-74.53-182.187-111.963c0.506,52.55,9.217,103.358,26.116,153.037
			c-0.863,0-1.458,0-2.053,0c-20.988,0-41.975-0.019-62.962,0.04c-1.529,0.004-2.115-0.502-2.581-1.889
			c-9.23-27.467-16.002-55.526-20.245-84.187c-2.332-15.749-3.939-31.577-4.606-47.493c-0.027-0.639-0.165-1.272-0.448-1.873
			c-0.423,5.824-0.813,11.65-1.274,17.471c-1.412,17.848-4.008,35.531-7.559,53.073c-4.347,21.471-10.202,42.527-17.525,63.176
			c-0.434,1.223-0.922,1.72-2.303,1.716c-21.173-0.05-42.345-0.035-63.518-0.038c-0.486,0-0.971-0.044-1.709-0.079
			c17.736-49.505,26.831-100.43,27.384-153.252C120.703,247.991,60.551,284.894,0.178,321.933c-0.058-0.718-0.135-1.226-0.135-1.734
			c-0.006-21.667,0.006-43.333-0.035-65c-0.002-1.217,0.355-1.857,1.431-2.427c27.877-14.783,55.735-29.6,83.596-44.414
			c0.693-0.368,1.376-0.754,2.263-1.241c-7.494-4.077-14.742-8.028-21.998-11.964c-21.237-11.521-42.475-23.041-63.726-34.537
			c-0.992-0.537-1.577-1.025-1.574-2.337c0.053-21.79,0.037-43.58,0.04-65.37c0-0.417,0.038-0.835,0.073-1.567
			C60.479,128.44,120.649,165.418,181.153,202.6C180.511,150.157,171.409,99.562,153.756,50.269z"/>
	</g>
	<g>
		<path fill="#FFFFFF" d="M613.062,208.471c0-58.362,44.255-95.424,98.191-95.424c38.446,0,62.509,19.362,76.339,41.212
			l-32.638,17.702c-8.297-13-24.064-24.064-43.701-24.064c-33.468,0-57.808,25.723-57.808,60.574s24.339,60.573,57.808,60.573
			c16.319,0,31.807-7.191,39.276-14.106V232.81h-48.68v-34.297h87.956v70.808c-18.807,21.022-45.084,34.851-78.551,34.851
			C657.318,304.171,613.062,266.555,613.062,208.471z"/>
		<path fill="#FFFFFF" d="M821.051,300.576V116.089h39.276v184.487H821.051z"/>
		<path fill="#FFFFFF" d="M896.832,300.576V116.089h97.083c35.128,0,53.106,22.404,53.106,47.021
			c0,23.234-14.382,38.724-31.807,42.319c19.638,3.043,35.404,22.127,35.404,45.361c0,27.66-18.532,49.787-53.659,49.787H896.832z
			 M1006.916,170.024c0-11.617-8.297-20.191-21.574-20.191h-49.234v40.106h49.234
			C998.618,189.939,1006.916,181.641,1006.916,170.024z M1010.512,245.257c0-11.617-8.298-21.574-23.787-21.574h-50.617v42.872
			h50.617C1001.66,266.555,1010.512,258.534,1010.512,245.257z"/>
		<path fill="#FFFFFF" d="M1080.207,300.576V116.089h97.083c35.127,0,53.106,22.404,53.106,47.021
			c0,23.234-14.382,38.724-31.807,42.319c19.638,3.043,35.404,22.127,35.404,45.361c0,27.66-18.532,49.787-53.659,49.787H1080.207z
			 M1190.29,170.024c0-11.617-8.297-20.191-21.574-20.191h-49.234v40.106h49.234C1181.993,189.939,1190.29,181.641,1190.29,170.024z
			 M1193.886,245.257c0-11.617-8.298-21.574-23.787-21.574h-50.617v42.872h50.617
			C1185.035,266.555,1193.886,258.534,1193.886,245.257z"/>
		<path fill="#FFFFFF" d="M1263.581,300.576V116.089h39.276v184.487H1263.581z"/>
	</g>
</g>
</svg>
