<?xml version="1.0" encoding="utf-8"?>
<!-- Generator: Adobe Illustrator 17.0.0, SVG Export Plug-In . SVG Version: 6.00 Build 0)  -->
<!DOCTYPE svg PUBLIC "-//W3C//DTD SVG 1.1//EN" "http://www.w3.org/Graphics/SVG/1.1/DTD/svg11.dtd">
<svg version="1.1" id="Layer_1" xmlns="http://www.w3.org/2000/svg" xmlns:xlink="http://www.w3.org/1999/xlink" x="0px" y="0px"
	 width="2508.311px" height="414.498px" viewBox="0 0 2508.311 414.498" enable-background="new 0 0 2508.311 414.498"
	 xml:space="preserve">
<g>
	<g>
		<path fill="#FFFFFF" d="M1000.413,327.243l-14.844-40.911H882.025l-15.206,40.911h-58.651l93.407-241.482h64.443l93.045,241.482
			H1000.413z M933.797,137.17l-37.652,103.907h75.305L933.797,137.17z"/>
		<path fill="#FFFFFF" d="M1248.048,327.243l-14.844-40.911H1129.66l-15.206,40.911h-58.651l93.407-241.482h64.443l93.045,241.482
			H1248.048z M1181.433,137.17l-37.652,103.907h75.305L1181.433,137.17z"/>
		<path fill="#FFFFFF" d="M1317.2,230.94V85.761h52.134v143.368c0,33.67,19.55,56.841,56.841,56.841
			c37.291,0,56.479-23.171,56.479-56.841V85.761h52.496v144.817c0,60.098-35.479,101.01-108.975,101.01
			C1352.681,331.588,1317.2,290.314,1317.2,230.94z"/>
		<path fill="#FFFFFF" d="M1582.575,327.243V85.761h112.957c52.496,0,81.098,35.48,81.098,77.839
			c0,41.997-28.964,77.839-81.098,77.839h-61.547v85.804H1582.575z M1724.133,163.6c0-20.275-15.206-32.584-35.481-32.584h-54.668
			v65.167h54.668C1708.928,196.184,1724.133,183.512,1724.133,163.6z"/>
		<path fill="#FFFFFF" d="M1808.489,230.94V85.761h52.134v143.368c0,33.67,19.55,56.841,56.841,56.841
			c37.29,0,56.478-23.171,56.478-56.841V85.761h52.497v144.817c0,60.098-35.481,101.01-108.975,101.01
			C1843.968,331.588,1808.489,290.314,1808.489,230.94z"/>
		<path fill="#FFFFFF" d="M2057.57,293.211l27.877-39.101c17.015,17.74,43.445,32.584,76.753,32.584
			c28.239,0,41.997-13.033,41.997-26.791c0-42.721-139.024-13.396-139.024-104.268c0-40.187,34.756-73.495,91.597-73.495
			c38.376,0,70.237,11.585,94.131,33.67l-28.601,37.653c-19.551-18.103-45.618-26.429-70.237-26.429
			c-22.085,0-34.395,9.776-34.395,24.257c0,38.376,138.663,12.672,138.663,102.82c0,44.169-31.498,77.477-96.665,77.477
			C2113.325,331.588,2080.017,316.019,2057.57,293.211z"/>
		<path fill="#FFFFFF" d="M2456.538,327.243V225.871h-114.043v101.372h-51.41V85.761h51.41v94.854h114.043V85.761h51.772v241.482
			H2456.538z"/>
	</g>
	<g>
		<path fill="#FFFFFF" d="M202.939,0.054c1.159,0,1.954,0,2.75,0c27.782,0,55.565,0.013,83.347-0.033
			c1.594-0.003,2.4,0.354,2.982,1.99c13.596,38.211,23.275,77.391,29.112,117.516c2.825,19.423,4.766,38.94,5.566,58.561
			c0.01,0.234,0.081,0.466,0.481,0.75c0.108-0.918,0.273-1.833,0.316-2.753c1.586-34.142,6.022-67.913,13.089-101.349
			c5.152-24.373,11.742-48.347,19.623-71.977c0.676-2.027,1.496-2.766,3.703-2.759c27.538,0.083,55.076,0.054,82.614,0.054
			c0.876,0,1.752,0,2.99,0c-22.433,65.914-33.923,133.374-34.49,203.308c80.302-49.265,160.21-98.287,240.404-147.485
			c0.074,0.953,0.173,1.627,0.173,2.3c0.008,28.597-0.009,57.194,0.047,85.792c0.003,1.612-0.48,2.448-1.897,3.199
			c-36.794,19.512-73.564,39.069-110.336,58.621c-0.912,0.485-1.811,0.994-2.979,1.636c9.896,5.383,19.462,10.599,29.039,15.794
			c28.03,15.206,56.061,30.411,84.11,45.583c1.312,0.71,2.076,1.359,2.072,3.088c-0.069,28.76-0.049,57.52-0.053,86.28
			c0,0.549-0.051,1.097-0.098,2.061c-80.165-49.265-160.07-98.371-240.465-147.777c0.667,69.36,12.165,136.42,34.471,201.99
			c-1.138,0-1.924,0-2.71,0c-27.701,0-55.402-0.026-83.103,0.053c-2.018,0.006-2.792-0.663-3.407-2.493
			c-12.183-36.254-21.12-73.288-26.722-111.116c-3.078-20.787-5.2-41.678-6.08-62.685c-0.035-0.843-0.217-1.68-0.591-2.472
			c-0.558,7.687-1.073,15.377-1.681,23.06c-1.864,23.557-5.289,46.897-9.977,70.05c-5.738,28.339-13.466,56.13-23.131,83.385
			c-0.572,1.614-1.217,2.27-3.04,2.266c-27.945-0.066-55.891-0.046-83.836-0.05c-0.641,0-1.282-0.058-2.256-0.104
			c23.409-65.34,35.414-132.556,36.143-202.274C159.314,261.024,79.92,309.731,0.235,358.618C0.158,357.67,0.057,357,0.056,356.33
			c-0.008-28.597,0.008-57.194-0.047-85.792c-0.003-1.607,0.469-2.45,1.889-3.204c36.794-19.511,73.564-39.069,110.337-58.621
			c0.914-0.486,1.816-0.995,2.987-1.638c-9.891-5.38-19.458-10.596-29.035-15.791c-28.031-15.206-56.062-30.412-84.111-45.585
			c-1.31-0.708-2.082-1.353-2.077-3.084c0.07-28.76,0.049-57.52,0.053-86.28c0-0.551,0.05-1.102,0.097-2.069
			c79.675,48.965,159.093,97.771,238.95,146.848C238.252,131.894,226.24,65.115,202.939,0.054z"/>
	</g>
</g>
</svg>
